<svg xmlns="http://www.w3.org/2000/svg" fill="none" viewBox="-1.145 -1.145 32 32" height="32" width="32" id="Rain-Cloud--Streamline-Core"><desc>Rain Cloud Streamline Icon: https://streamlinehq.com</desc><g id="Rain-Cloud--Streamline-Core"><path id="Vector" stroke="#000" stroke-linecap="round" stroke-linejoin="round" d="m8.488571428571428 24.404642857142854 1.0610714285714284 -2.122142857142857" stroke-width="2.29"></path><path id="Vector_2" stroke="#000" stroke-linecap="round" stroke-linejoin="round" d="m18.038214285714282 24.404642857142854 1.0610714285714284 -2.122142857142857" stroke-width="2.29"></path><path id="Vector_3" stroke="#000" stroke-linecap="round" stroke-linejoin="round" d="m12.202321428571427 28.648928571428566 1.0610714285714284 -2.122142857142857" stroke-width="2.29"></path><path id="Vector_4" stroke="#000" stroke-linecap="round" stroke-linejoin="round" d="m2.652678571428571 28.648928571428566 1.0610714285714284 -2.122142857142857" stroke-width="2.29"></path><path id="Vector_5" stroke="#000" stroke-linecap="round" stroke-linejoin="round" d="m21.751964285714283 28.648928571428566 1.0610714285714284 -2.122142857142857" stroke-width="2.29"></path><path id="Vector_6" stroke="#000" stroke-linecap="round" stroke-linejoin="round" d="M21.752176499999997 16.977142857142855c1.4069807142857143 0 2.756451357142857 -0.5589512071428571 3.751311928571428 -1.5538966642857142 0.9950727857142856 -0.9949666785714284 1.554045214285714 -2.3443948785714284 1.554045214285714 -3.751460478571428 0 -1.4070655999999997 -0.5589724285714286 -2.7565150214285707 -1.554045214285714 -3.751460478571428C24.50862785714285 6.925379778571427 23.159157214285713 6.366428571428571 21.752176499999997 6.366428571428571c-1.2101944071428572 0.004032071428571428 -2.3837606285714283 0.4151548071428571 -3.3318491714285714 1.1671785714285714 -0.2820115642857143 -1.4841842714285713 -0.9806422142857142 -2.8574441357142852 -2.0142743357142856 -3.9592394857142854 -1.0336321214285713 -1.1018165714285713 -2.359525757142857 -1.886633809285714 -3.8227008142857137 -2.2627390657142854C11.12017712142857 0.9355233349999998 9.58018049285714 0.9836747564285714 8.143341228571428 1.4504528107142856c-1.4368180428571427 0.4667801764285714 -2.711101164285714 1.3329073178571427 -3.673853714285714 2.4971148892857142 -0.9627737714285713 1.1642287928571429 -1.5742692357142856 2.578446014285714 -1.7630126214285713 4.077357957142857 -0.18872216428571426 1.4989119428571425 0.05309601428571428 3.0205732571428565 0.6972088142857142 4.3871271499999995s1.6638873285714284 2.5215301428571424 2.9401652642857137 3.3299180214285706c1.2762567142857142 0.8084090999999999 2.756260364285714 1.2368060785714285 4.266992642857142 1.2351720285714285h11.141334885714285Z" stroke-width="2.29"></path></g></svg>